<?xml version="1.0" standalone="no"?>
<!DOCTYPE svg PUBLIC "-//W3C//DTD SVG 1.1//EN" "http://www.w3.org/Graphics/SVG/1.1/DTD/svg11.dtd" >
<svg xmlns="http://www.w3.org/2000/svg">
<metadata>Generated by IcoMoon</metadata>
<defs>
<font id="ico-bagsto" horiz-adv-x="1024">
<font-face units-per-em="1024" ascent="960" descent="-64" />
<missing-glyph horiz-adv-x="1024" />
<glyph unicode="&#x20;" horiz-adv-x="512" d="" />
<glyph unicode="&#xe900;" glyph-name="add_a_photo" d="M128 618.667c0-23.467 19.2-42.667 42.667-42.667s42.667 19.2 42.667 42.667v85.333h85.333c23.467 0 42.667 19.2 42.667 42.667s-19.2 42.667-42.667 42.667h-85.333v85.333c0 23.467-19.2 42.667-42.667 42.667s-42.667-19.2-42.667-42.667v-85.333h-85.333c-23.467 0-42.667-19.2-42.667-42.667s19.2-42.667 42.667-42.667h85.333v-85.333zM682.667 362.667c0-70.694-57.306-128-128-128s-128 57.306-128 128c0 70.694 57.306 128 128 128s128-57.306 128-128zM760.747 704h135.253c46.933 0 85.333-38.4 85.333-85.333v-512c0-46.933-38.4-85.333-85.333-85.333h-682.667c-46.933 0-85.333 38.4-85.333 85.333v438.613c12.8-7.253 26.88-11.947 42.667-11.947 46.933 0 85.333 38.4 85.333 85.333v42.667h42.667c46.933 0 85.333 38.4 85.333 85.333 0 15.787-4.693 29.867-11.947 42.667h273.067c23.893 0 46.933-10.24 62.72-27.733l52.907-57.6zM341.333 362.667c0-117.76 95.573-213.333 213.333-213.333s213.333 95.573 213.333 213.333c0 117.76-95.573 213.333-213.333 213.333s-213.333-95.573-213.333-213.333z" />
<glyph unicode="&#xe901;" glyph-name="add_photo_alternate" d="M896.853 746.667c23.040 0 41.813-18.773 41.813-41.813v-1.707c0-23.040-18.773-41.813-41.813-41.813h-86.187v-85.76c0-23.040-18.773-41.813-41.813-41.813h-1.28c-23.467-0.427-42.24 18.773-42.24 41.813v85.76h-85.76c-23.467 0-42.24 18.773-42.24 42.24v1.28c0.427 23.040 19.2 41.813 42.24 41.813h85.76v86.187c0 23.040 18.773 41.813 42.24 41.813h1.28c23.040 0 41.813-18.773 41.813-41.813v-86.187h86.187zM682.667 575.573c0-46.507 37.973-84.48 84.48-84.907 16.213 0 30.72 4.693 43.52 11.947v-353.28c0-46.933-38.4-85.333-85.333-85.333h-512c-46.933 0-85.333 38.4-85.333 85.333v512c0 46.933 38.4 85.333 85.333 85.333h352.853c-7.253-12.373-11.52-26.453-11.52-41.813 0-23.893 8.96-45.227 24.747-61.44 16.213-15.787 37.547-24.747 60.16-24.747h43.093v-43.093zM256 149.333h424.96c17.92 0 27.733 20.48 16.64 34.56l-125.867 157.013c-8.533 11.093-25.173 10.667-33.707-0.427l-111.36-148.48-68.267 102.827c-8.533 11.947-26.027 12.8-34.987 0.853l-84.48-112.213c-10.667-14.080-0.427-34.133 17.067-34.133z" />
<glyph unicode="&#xe902;" glyph-name="add_shopping_cart" d="M554.667 618.667c0-23.467-19.2-42.667-42.667-42.667s-42.667 19.2-42.667 42.667v85.333h-85.333c-23.467 0-42.667 19.2-42.667 42.667s19.2 42.667 42.667 42.667h85.333v85.333c0 23.467 19.2 42.667 42.667 42.667s42.667-19.2 42.667-42.667v-85.333h85.333c23.467 0 42.667-19.2 42.667-42.667s-19.2-42.667-42.667-42.667h-85.333v-85.333zM213.76 106.667c0 46.933 37.973 85.333 84.907 85.333s85.333-38.4 85.333-85.333c0-46.933-38.4-85.333-85.333-85.333s-84.907 38.4-84.907 85.333zM725.333 192c-46.933 0-84.907-38.4-84.907-85.333s37.973-85.333 84.907-85.333c46.933 0 85.333 38.4 85.333 85.333s-38.4 85.333-85.333 85.333zM663.467 405.333h-317.867l-46.933-85.333h469.333c23.467 0 42.667-19.2 42.667-42.667s-19.2-42.667-42.667-42.667h-469.333c-64.853 0-105.813 69.547-74.667 126.72l57.6 104.107-153.6 323.84h-42.667c-23.467 0-42.667 19.2-42.667 42.667s19.2 42.667 42.667 42.667h69.973c16.213 0 31.573-9.387 38.4-24.32l170.24-359.68h299.52l144.64 261.547c11.093 20.48 37.12 27.733 57.6 16.64 20.48-11.52 28.16-37.547 16.64-58.027l-144.213-261.547c-14.507-26.453-42.667-43.947-74.667-43.947z" />
<glyph unicode="&#xe903;" glyph-name="call" d="M742.4 21.333c-362.693 0.469-656.596 294.374-657.067 657.067 0 108.395 87.872 196.267 196.267 196.267 11.023 0.084 22.027-0.916 32.853-2.987 10.467-1.549 20.756-4.121 30.72-7.68 14.259-5.003 24.808-17.175 27.733-32l58.453-256c3.2-14.119-0.977-28.899-11.093-39.253-5.547-5.974-5.973-6.4-58.453-33.707 42.026-92.194 115.763-166.234 207.787-208.64 27.733 52.907 28.16 53.333 34.133 58.88 10.355 10.116 25.135 14.293 39.253 11.093l256-58.453c14.34-3.328 25.95-13.807 30.72-27.733 3.601-10.125 6.315-20.548 8.107-31.147 1.715-10.722 2.573-21.568 2.56-32.427-1.638-107.895-90.069-194.231-197.973-193.28v0z" />
<glyph unicode="&#xe904;" glyph-name="cart" d="M899.413 661.308c-7.373 12.774-17.929 23.418-30.643 30.896-12.71 7.478-27.145 11.533-41.89 11.77h-546.133l-24.747 96.427c-2.5 9.309-8.079 17.496-15.826 23.229s-17.208 8.675-26.841 8.344h-85.333c-11.316 0-22.168-4.495-30.17-12.497s-12.497-18.854-12.497-30.17c0-11.316 4.495-22.168 12.497-30.17s18.854-12.497 30.17-12.497h52.907l117.76-437.76c2.5-9.306 8.079-17.493 15.826-23.228s17.208-8.674 26.841-8.346h384c7.881 0.026 15.599 2.231 22.302 6.37 6.703 4.143 12.126 10.061 15.671 17.097l139.947 279.894c6.067 12.714 8.887 26.732 8.218 40.803s-4.813 27.757-12.058 39.837zM320 63.974c35.346 0 64 28.655 64 64s-28.654 64-64 64c-35.346 0-64-28.655-64-64s28.654-64 64-64zM746.667 63.974c35.345 0 64 28.655 64 64s-28.655 64-64 64c-35.345 0-64-28.655-64-64s28.655-64 64-64z" />
<glyph unicode="&#xe905;" glyph-name="check" d="M85.333 448c0 235.642 191.025 426.667 426.667 426.667 113.161 0 221.683-44.952 301.7-124.968 80.013-80.016 124.966-188.54 124.966-301.699 0-235.639-191.027-426.667-426.667-426.667-235.642 0-426.667 191.027-426.667 426.667zM500.48 293.973l194.987 256v1.28c9.297 12.195 11.383 28.424 5.474 42.574-5.914 14.15-18.923 24.071-34.133 26.027s-30.31-4.352-39.607-16.547l-161.28-213.333-69.547 88.747c-9.375 12.041-24.462 18.167-39.578 16.073-15.116-2.099-27.965-12.1-33.707-26.24s-3.503-30.272 5.871-42.313l104.107-132.693c8.141-10.304 20.574-16.286 33.707-16.213 13.205 0.030 25.651 6.178 33.707 16.64z" />
<glyph unicode="&#xe906;" glyph-name="checkbox_indeterminate" d="M298.667 874.667h426.667c117.82 0 213.333-95.513 213.333-213.333v-426.667c0-117.82-95.514-213.333-213.333-213.333h-426.667c-117.821 0-213.333 95.514-213.333 213.333v426.667c0 117.821 95.513 213.333 213.333 213.333zM384 405.333h256c23.565 0 42.667 19.102 42.667 42.667s-19.102 42.667-42.667 42.667h-256c-23.564 0-42.667-19.102-42.667-42.667s19.103-42.667 42.667-42.667z" />
<glyph unicode="&#xe907;" glyph-name="checkbox_on" d="M298.667 874.667h426.667c117.82 0 213.333-95.513 213.333-213.333v-426.667c0-117.82-95.514-213.333-213.333-213.333h-426.667c-117.821 0-213.333 95.514-213.333 213.333v426.667c0 117.821 95.513 213.333 213.333 213.333zM506.24 309.547l202.667 202.667c14.507 14.507 14.507 37.973 0 52.907-14.507 14.507-38.4 14.507-52.907 0l-176.213-176.213-74.667 74.667c-14.507 14.507-38.4 14.507-52.907 0s-14.507-37.973 0-52.907l101.547-101.12c7.253-7.253 16.64-10.667 26.027-10.667 9.813 0 19.2 3.413 26.453 10.667z" />
<glyph unicode="&#xe908;" glyph-name="chevron_down" d="M512.013 298.611c-9.971-0.017-19.631 3.452-27.307 9.813l-256 213.333c-18.144 15.082-20.628 42.017-5.547 60.161s42.016 20.628 60.16 5.547l228.693-191.148 228.693 184.321c8.815 7.159 20.117 10.508 31.411 9.306 11.29-1.201 21.636-6.854 28.749-15.706 7.898-8.868 11.746-20.628 10.611-32.45s-7.142-22.638-16.585-29.844l-256-206.080c-7.898-5.355-17.361-7.906-26.88-7.253z" />
<glyph unicode="&#xe909;" glyph-name="chevron_left" d="M590.067 149.333c-12.911-0.043-25.148 5.76-33.28 15.787l-206.081 256c-12.942 15.744-12.942 38.443 0 54.187l213.334 256c15.078 18.144 42.014 20.628 60.16 5.547 18.142-15.081 20.625-42.016 5.547-60.16l-190.72-228.694 184.32-228.693c10.654-12.787 12.898-30.605 5.747-45.636-7.147-15.031-22.383-24.533-39.027-24.337z" />
<glyph unicode="&#xe90a;" glyph-name="chevron_right" d="M426.666 149.333c-9.969-0.021-19.63 3.452-27.307 9.813-8.725 7.232-14.214 17.643-15.255 28.928-1.041 11.29 2.452 22.524 9.708 31.232l191.147 228.693-184.32 229.12c-7.158 8.815-10.508 20.119-9.306 31.411s6.854 21.638 15.706 28.749c8.925 7.852 20.719 11.626 32.547 10.411 11.823-1.215 22.605-7.308 29.747-16.811l206.080-256c12.941-15.744 12.941-38.443 0-54.187l-213.333-256c-8.683-10.475-21.837-16.179-35.414-15.36z" />
<glyph unicode="&#xe90b;" glyph-name="chevron_up" d="M512.951 597.232c9.967 0.020 19.631-3.452 27.307-9.813l256-213.335c18.142-15.078 20.625-42.014 5.547-60.16-15.083-18.142-42.018-20.625-60.16-5.547l-228.693 191.147-228.694-184.32c-8.815-7.155-20.119-10.505-31.41-9.306-11.292 1.203-21.638 6.857-28.75 15.706-7.899 8.87-11.744 20.629-10.611 32.452s7.144 22.635 16.584 29.841l256.001 206.081c7.898 5.356 17.361 7.91 26.88 7.253z" />
<glyph unicode="&#xe90c;" glyph-name="clock" d="M85.333 448c0 235.642 191.025 426.667 426.667 426.667 113.161 0 221.683-44.952 301.7-124.968 80.013-80.016 124.966-188.54 124.966-301.699 0-235.639-191.027-426.667-426.667-426.667-235.642 0-426.667 191.027-426.667 426.667zM512 405.333h170.667c23.565 0 42.667 19.102 42.667 42.667s-19.102 42.667-42.667 42.667h-128v128c0 23.564-19.102 42.667-42.667 42.667s-42.667-19.103-42.667-42.667v-170.667c0-23.565 19.102-42.667 42.667-42.667z" />
<glyph unicode="&#xe90d;" glyph-name="clock_outline" d="M554.667 490.667h128c11.315 0 22.17-4.497 30.17-12.497s12.497-18.854 12.497-30.17c0-11.315-4.497-22.17-12.497-30.17s-18.854-12.497-30.17-12.497h-170.667c-11.315 0-22.17 4.497-30.17 12.497s-12.497 18.854-12.497 30.17v170.667c0 11.316 4.497 22.168 12.497 30.17s18.854 12.497 30.17 12.497c11.315 0 22.17-4.495 30.17-12.497s12.497-18.854 12.497-30.17v-128zM274.957 802.761c70.165 46.883 152.657 71.906 237.043 71.906 56.030 0 111.514-11.036 163.277-32.478 51.767-21.442 98.803-52.87 138.423-92.49s71.049-86.655 92.489-138.421c21.44-51.765 32.478-107.248 32.478-163.278 0-84.386-25.024-166.878-71.906-237.043s-113.519-124.851-191.484-157.146c-77.961-32.294-163.75-40.742-246.515-24.282-82.765 16.465-158.79 57.101-218.46 116.77-59.671 59.674-100.307 135.697-116.77 218.462s-8.014 168.555 24.28 246.516c32.294 77.964 86.98 144.599 157.145 191.482zM322.365 164.19c56.132-37.504 122.127-57.523 189.635-57.523 90.526 0 177.348 35.964 241.361 99.972 64.013 64.013 99.972 150.835 99.972 241.361 0 67.511-20.019 133.503-57.523 189.635-37.508 56.132-90.816 99.881-153.186 125.716s-131.004 32.594-197.214 19.424c-66.213-13.17-127.033-45.679-174.769-93.416s-80.245-108.556-93.416-174.769c-13.17-66.21-6.411-134.844 19.424-197.214s69.584-115.678 125.716-153.186z" />
<glyph unicode="&#xe90e;" glyph-name="close" horiz-adv-x="1067" d="M572.147 448.038l183.317 182.887c16.713 16.717 16.713 43.82 0 60.537-16.717 16.717-43.823 16.717-60.54 0l-182.886-183.315-182.891 183.315c-16.717 16.717-43.82 16.717-60.537 0s-16.716-43.82 0-60.537l183.315-182.887-183.315-182.891c-8.070-8.004-12.61-18.901-12.61-30.268s4.54-22.263 12.61-30.268c8.005-8.073 18.901-12.612 30.269-12.612s22.263 4.54 30.269 12.612l182.891 183.313 182.886-183.313c8.004-8.073 18.901-12.612 30.268-12.612 11.371 0 22.263 4.54 30.272 12.612 8.068 8.004 12.608 18.901 12.608 30.268s-4.54 22.263-12.608 30.268l-183.317 182.891z" />
<glyph unicode="&#xe90f;" glyph-name="dot" d="M597.333 448c0-47.128-38.205-85.333-85.333-85.333s-85.333 38.205-85.333 85.333c0 47.128 38.205 85.333 85.333 85.333s85.333-38.205 85.333-85.333z" />
<glyph unicode="&#xe910;" glyph-name="edit" d="M710.839 763.733l116.907-116.907c32.683-31.137 34.018-82.844 2.987-115.626l-384-384c-13.909-13.79-32.137-22.379-51.627-24.32l-177.92-16.213h-3.84c-11.341-0.064-22.241 4.386-30.293 12.373-9.001 8.969-13.537 21.478-12.373 34.133l18.347 177.92c1.942 19.49 10.529 37.717 24.32 51.627l384 384c33.101 27.966 81.907 26.681 113.493-2.987zM568.333 618.666l114.347-114.346 85.333 83.2-116.48 116.48-83.2-85.333z" />
<glyph unicode="&#xe911;" glyph-name="facebbook" d="M725.333 810.667c0 11.782-9.553 21.333-21.333 21.333h-106.667c-111.817 5.57-207.135-80.217-213.333-192v-115.2h-106.667c-11.782 0-21.333-9.553-21.333-21.333v-110.933c0-11.78 9.551-21.333 21.333-21.333h106.667v-285.867c0-11.78 9.551-21.333 21.333-21.333h128c11.78 0 21.333 9.553 21.333 21.333v285.867h111.787c9.758-0.141 18.368 6.362 20.907 15.787l30.72 110.933c1.719 6.387 0.38 13.214-3.631 18.475-4.011 5.265-10.231 8.367-16.849 8.405h-142.933v115.2c2.197 21.884 20.672 38.51 42.667 38.4h106.667c11.78 0 21.333 9.551 21.333 21.333v110.933z" />
<glyph unicode="&#xe912;" glyph-name="filter" d="M128 661.333c0-23.467 19.2-42.667 42.667-42.667h682.667c23.467 0 42.667 19.2 42.667 42.667s-19.2 42.667-42.667 42.667h-682.667c-23.467 0-42.667-19.2-42.667-42.667zM469.333 192h85.333c23.467 0 42.667 19.2 42.667 42.667s-19.2 42.667-42.667 42.667h-85.333c-23.467 0-42.667-19.2-42.667-42.667s19.2-42.667 42.667-42.667zM725.333 405.333h-426.667c-23.467 0-42.667 19.2-42.667 42.667s19.2 42.667 42.667 42.667h426.667c23.467 0 42.667-19.2 42.667-42.667s-19.2-42.667-42.667-42.667z" />
<glyph unicode="&#xe913;" glyph-name="instagram" d="M417.191 448c0-52.356 42.435-94.81 94.809-94.81s94.81 42.436 94.81 94.81c0 52.356-42.436 94.809-94.81 94.809-52.356 0-94.809-42.435-94.809-94.809zM512 681.191c75.947 0 84.941-0.285 114.935-1.653 32.371-1.476 62.417-7.965 85.525-31.076 23.113-23.111 29.602-53.155 31.078-85.529 1.365-29.993 1.651-38.987 1.651-114.933s-0.286-84.941-1.651-114.935c-1.476-32.371-7.966-62.417-31.078-85.525-23.108-23.113-53.154-29.602-85.525-31.078-29.995-1.365-38.989-1.651-114.935-1.651s-84.941 0.286-114.933 1.651c-32.373 1.476-62.418 7.966-85.529 31.078-23.111 23.108-29.6 53.154-31.076 85.525-1.369 29.995-1.653 38.989-1.653 114.935s0.285 84.941 1.653 114.933c1.476 32.373 7.965 62.418 31.076 85.529s53.155 29.6 85.529 31.076c29.993 1.369 38.987 1.653 114.933 1.653zM365.938 448c0 80.657 65.388 146.062 146.062 146.062s146.061-65.405 146.061-146.062c0-80.657-65.404-146.061-146.061-146.061s-146.062 65.404-146.062 146.061zM663.842 565.707c18.85 0 34.133 15.282 34.133 34.133s-15.283 34.133-34.133 34.133c-18.854 0-34.138-15.282-34.138-34.133s15.283-34.133 34.138-34.133zM336.089 872.107c45.511 2.062 60.036 2.56 175.911 2.56s130.398-0.498 175.91-2.56c69.367-3.165 130.257-20.16 179.149-69.049 48.905-48.907 65.882-109.813 69.047-179.147 2.061-45.511 2.56-60.036 2.56-175.911s-0.499-130.398-2.56-175.91c-3.166-69.367-20.16-130.257-69.047-179.149-48.909-48.905-109.833-65.882-179.149-69.047-45.513-2.061-60.036-2.56-175.91-2.56s-130.4 0.499-175.911 2.56c-69.369 3.166-130.257 20.16-179.147 69.047-48.907 48.909-65.884 109.815-69.049 179.149-2.062 45.513-2.56 60.036-2.56 175.91s0.498 130.4 2.56 175.911c3.165 69.369 20.16 130.257 69.049 179.147 48.907 48.907 109.813 65.884 179.147 69.049zM512 732.445c-77.244 0-86.933-0.32-117.28-1.707-46.222-2.116-86.827-13.44-119.431-46.027-32.587-32.587-43.911-73.191-46.027-119.431-1.387-30.347-1.707-40.036-1.707-117.28s0.32-86.933 1.707-117.282c2.116-46.221 13.44-86.827 46.027-119.428 32.587-32.589 73.191-43.913 119.431-46.029 30.347-1.387 40.036-1.707 117.28-1.707s86.933 0.32 117.282 1.707c46.221 2.116 86.827 13.44 119.428 46.029 32.589 32.585 43.913 73.19 46.029 119.428 1.387 30.349 1.707 40.038 1.707 117.282s-0.32 86.933-1.707 117.28c-2.116 46.222-13.44 86.827-46.029 119.431-32.585 32.587-73.19 43.911-119.428 46.027-30.349 1.387-40.038 1.707-117.282 1.707z" />
<glyph unicode="&#xe914;" glyph-name="linkedin" d="M646.4 601.6c-66.044 0.227-129.472-25.822-176.29-72.401-46.823-46.583-73.197-109.871-73.31-175.919v-250.88c0-10.185 4.046-19.951 11.247-27.153s16.969-11.247 27.153-11.247h89.6c21.21 0 38.4 17.19 38.4 38.4v250.88c-0.017 23.522 9.975 45.943 27.482 61.658 17.502 15.71 40.866 23.236 64.252 20.689 42.923-5.406 75.004-42.074 74.667-85.333v-247.893c0-21.21 17.19-38.4 38.4-38.4h89.6c21.21 0 38.4 17.19 38.4 38.4v250.88c-0.111 66.048-26.487 129.335-73.31 175.919-46.818 46.579-110.246 72.628-176.29 72.401zM128 524.8c0 21.208 17.192 38.4 38.4 38.4h115.2c21.208 0 38.4-17.192 38.4-38.4v-422.4c0-21.21-17.192-38.4-38.4-38.4h-115.2c-21.208 0-38.4 17.19-38.4 38.4v422.4zM320 736c0-53.019-42.981-96-96-96s-96 42.981-96 96c0 53.019 42.981 96 96 96s96-42.981 96-96z" />
<glyph unicode="&#xe915;" glyph-name="location" d="M576 554.667c0-35.345-28.655-64-64-64s-64 28.655-64 64c0 35.346 28.655 64 64 64s64-28.654 64-64zM170.667 536.747c1.872 187.179 154.145 337.929 341.333 337.92 187.187 0.009 339.46-150.741 341.333-337.92 0-233.813-298.667-494.080-313.6-505.173-15.966-13.658-39.501-13.658-55.467 0l-0.068 0.060c-13.781 11.942-313.532 271.71-313.532 505.114zM362.667 554.667c0-82.475 66.859-149.333 149.333-149.333 39.607 0 77.589 15.731 105.596 43.738s43.738 65.988 43.738 105.596c0 82.475-66.859 149.333-149.333 149.333s-149.333-66.859-149.333-149.333z" />
<glyph unicode="&#xe916;" glyph-name="mail" d="M213.333 789.333h597.333c70.694 0 128-57.308 128-128v-426.667c0-70.694-57.306-128-128-128h-597.333c-70.692 0-128 57.306-128 128v426.667c0 70.692 57.308 128 128 128zM533.333 513.28l277.333 190.72h-597.333l277.333-190.72c13.201-7.62 29.466-7.62 42.667 0z" />
<glyph unicode="&#xe917;" glyph-name="menu" d="M213.333 448c0-23.565-19.103-42.667-42.667-42.667s-42.667 19.102-42.667 42.667c0 23.565 19.103 42.667 42.667 42.667s42.667-19.102 42.667-42.667zM298.667 450.56c0 22.148 17.956 40.107 40.107 40.107h517.12c22.148 0 40.107-17.958 40.107-40.107v-5.12c0-22.148-17.958-40.107-40.107-40.107h-517.12c-22.15 0-40.107 17.958-40.107 40.107v5.12zM128 237.227c0 22.148 17.956 40.107 40.107 40.107h687.787c22.148 0 40.107-17.958 40.107-40.107v-5.12c0-22.148-17.958-40.107-40.107-40.107h-687.787c-22.15 0-40.107 17.958-40.107 40.107v5.12zM128 663.893c0 22.15 17.956 40.107 40.107 40.107h687.787c22.148 0 40.107-17.956 40.107-40.107v-5.12c0-22.15-17.958-40.107-40.107-40.107h-687.787c-22.15 0-40.107 17.956-40.107 40.107v5.12z" />
<glyph unicode="&#xe918;" glyph-name="minus" d="M810.667 405.333h-597.333c-23.564 0-42.667 19.102-42.667 42.667s19.103 42.667 42.667 42.667h597.333c23.565 0 42.667-19.102 42.667-42.667s-19.102-42.667-42.667-42.667z" />
<glyph unicode="&#xe919;" glyph-name="person" d="M512 490.667c94.255 0 170.667 76.41 170.667 170.667s-76.412 170.667-170.667 170.667c-94.257 0-170.667-76.41-170.667-170.667s76.41-170.667 170.667-170.667zM768 64c23.565 0 42.667 19.102 42.667 42.667 0 164.949-133.717 298.667-298.667 298.667s-298.667-133.717-298.667-298.667c0-23.565 19.103-42.667 42.667-42.667h512z" />
<glyph unicode="&#xe91a;" glyph-name="plus" d="M810.667 490.667h-256v256c0 23.564-19.102 42.667-42.667 42.667s-42.667-19.103-42.667-42.667v-256h-256c-23.564 0-42.667-19.102-42.667-42.667s19.103-42.667 42.667-42.667h256v-256c0-23.565 19.102-42.667 42.667-42.667s42.667 19.102 42.667 42.667v256h256c23.565 0 42.667 19.102 42.667 42.667s-19.102 42.667-42.667 42.667z" />
<glyph unicode="&#xe91b;" glyph-name="radio_off" d="M85.333 448c0-235.639 191.025-426.667 426.667-426.667 235.639 0 426.667 191.027 426.667 426.667 0 235.642-191.027 426.667-426.667 426.667-235.642 0-426.667-191.025-426.667-426.667zM149.333 448c0 200.295 162.371 362.667 362.667 362.667s362.667-162.371 362.667-362.667c0-200.294-162.372-362.667-362.667-362.667s-362.667 162.372-362.667 362.667z" />
<glyph unicode="&#xe91c;" glyph-name="radio_on" d="M85.333 448c0 235.642 191.025 426.667 426.667 426.667 113.161 0 221.683-44.952 301.7-124.968 80.013-80.016 124.966-188.54 124.966-301.699 0-235.639-191.027-426.667-426.667-426.667-235.642 0-426.667 191.027-426.667 426.667zM149.333 448c0-200.294 162.371-362.667 362.667-362.667 96.183 0 188.429 38.208 256.444 106.223s106.223 160.26 106.223 256.444c0 200.295-162.372 362.667-362.667 362.667s-362.667-162.371-362.667-362.667zM512 661.333c-117.821 0-213.333-95.513-213.333-213.333s95.513-213.333 213.333-213.333c117.82 0 213.333 95.514 213.333 213.333s-95.514 213.333-213.333 213.333z" />
<glyph unicode="&#xe91d;" glyph-name="search" d="M738.56 281.6l145.067-144.64c8.077-8.013 12.621-18.918 12.621-30.293s-4.544-22.281-12.621-30.293c-8.013-8.077-18.918-12.621-30.293-12.621s-22.281 4.544-30.293 12.621l-144.64 145.067c-59.627-46.805-133.261-72.201-209.067-72.107-188.513 0-341.333 152.819-341.333 341.333s152.82 341.333 341.333 341.333c188.514 0 341.333-152.82 341.333-341.333 0.094-75.806-25.301-149.44-72.107-209.067zM469.333 746.667c-141.385 0-256-114.615-256-256s114.615-256 256-256c141.385 0 256 114.615 256 256s-114.615 256-256 256z" />
<glyph unicode="&#xe91e;" glyph-name="trash" d="M896 704h-213.333v71.253c-1.003 27.315-12.791 53.118-32.785 71.753-19.998 18.636-46.566 28.582-73.882 27.66h-128c-27.317 0.922-53.885-9.025-73.88-27.66s-31.785-44.438-32.786-71.753v-71.253h-213.333c-11.316 0-22.168-4.495-30.17-12.497s-12.497-18.854-12.497-30.17c0-11.316 4.495-22.168 12.497-30.17s18.854-12.497 30.17-12.497h42.667v-469.333c0-33.95 13.486-66.505 37.49-90.509s56.562-37.491 90.51-37.491h426.667c33.946 0 66.505 13.487 90.509 37.491s37.491 56.559 37.491 90.509v469.333h42.667c11.315 0 22.17 4.495 30.17 12.497s12.497 18.854 12.497 30.17c0 11.316-4.497 22.169-12.497 30.17s-18.854 12.497-30.17 12.497zM426.667 775.253c0 6.827 8.96 14.080 21.333 14.080h128c12.373 0 21.333-7.253 21.333-14.080v-71.253h-170.667v71.253zM768 149.333c0-11.315-4.497-22.17-12.497-30.17s-18.854-12.497-30.17-12.497h-426.667c-11.316 0-22.168 4.497-30.17 12.497s-12.497 18.854-12.497 30.17v469.333h512v-469.333zM384 234.667c11.316 0 22.168 4.497 30.17 12.497s12.497 18.854 12.497 30.17v170.667c0 11.315-4.495 22.17-12.497 30.17s-18.854 12.497-30.17 12.497c-11.316 0-22.168-4.497-30.17-12.497s-12.497-18.854-12.497-30.17v-170.667c0-11.315 4.495-22.17 12.497-30.17s18.854-12.497 30.17-12.497zM640 234.667c11.315 0 22.17 4.497 30.17 12.497s12.497 18.854 12.497 30.17v170.667c0 11.315-4.497 22.17-12.497 30.17s-18.854 12.497-30.17 12.497c-11.315 0-22.17-4.497-30.17-12.497s-12.497-18.854-12.497-30.17v-170.667c0-11.315 4.497-22.17 12.497-30.17s18.854-12.497 30.17-12.497z" />
<glyph unicode="&#xe91f;" glyph-name="trending_down" d="M896.013 448c0 23.565-19.102 42.667-42.667 42.667s-42.667-19.102-42.667-42.667v-98.133l-180.907 213.334c-13.483 15.76-36.348 19.541-54.187 8.96l-182.187-111.36-189.867 227.84c-9.756 11.738-25.033 17.379-40.075 14.799s-27.567-12.989-32.853-27.307c-5.287-14.317-2.534-30.368 7.222-42.105l213.333-256c13.419-16.132 36.577-20.113 54.613-9.387l182.614 109.653 170.667-200.96h-119.040c-23.565 0-42.667-19.102-42.667-42.667s19.102-42.667 42.667-42.667h213.333c5.252 0.128 10.441 1.139 15.36 2.987l5.973 3.413c2.223 1.122 4.365 2.406 6.4 3.84 2.338 2.112 4.348 4.557 5.973 7.253 1.429 1.89 2.714 3.887 3.84 5.973 1.045 2.308 1.762 4.749 2.133 7.253 1.728 3.763 2.743 7.812 2.987 11.947v213.333z" />
<glyph unicode="&#xe920;" glyph-name="trending_up" d="M896 661.333c0.405 2.973 0.405 5.987 0 8.96-0.371 2.505-1.088 4.946-2.133 7.253-1.126 2.085-2.411 4.082-3.84 5.973-1.621 2.699-3.635 5.143-5.973 7.253l-5.12 2.987c-2.462 1.836-5.197 3.276-8.107 4.267h-8.533c-2.598 2.517-5.636 4.541-8.96 5.973h-213.333c-23.565 0-42.667-19.103-42.667-42.667s19.102-42.667 42.667-42.667h120.747l-170.667-200.96-184.32 109.653c-18.036 10.727-41.194 6.747-54.613-9.387l-213.333-256c-7.256-8.708-10.749-19.942-9.708-31.232 1.041-11.285 6.529-21.696 15.255-28.928 7.676-6.362 17.338-9.835 27.307-9.813 12.69-0.021 24.731 5.611 32.853 15.36l189.867 227.84 182.187-109.227c17.839-10.581 40.704-6.801 54.187 8.96l180.907 211.2v-98.133c0-23.565 19.102-42.667 42.667-42.667s42.667 19.102 42.667 42.667v213.333z" />
<glyph unicode="&#xe921;" glyph-name="twitter" d="M344.76 106.667c127.462-4.267 251.234 43.196 343.163 131.588 91.93 88.397 144.209 210.21 144.943 337.743 28.915 35.78 50.381 76.978 63.147 121.173 1.946 7.133-0.474 14.744-6.187 19.441-5.709 4.697-13.645 5.605-20.267 2.319-31.014-14.93-68.1-8.406-92.16 16.213-30.259 33.138-72.653 52.61-117.504 53.976-44.855 1.367-88.354-15.488-120.576-46.723-44.416-43.016-63.040-106.166-49.067-166.4-142.933-8.533-241.066 59.307-319.573 152.32-4.819 5.458-12.41 7.549-19.344 5.33s-11.9-8.329-12.656-15.57c-30.63-169.905 47.653-340.934 196.267-428.798-48.656-55.804-116.983-90.654-190.72-97.28-8.099-1.344-14.448-7.689-15.798-15.787s2.599-16.158 9.824-20.053c64.15-32.060 134.794-48.99 206.507-49.493z" />
</font>
</defs>
</svg>
