<svg width="24" height="24" viewBox="0 0 24 24" fill="none" xmlns="http://www.w3.org/2000/svg">
<path d="M9.99999 19C9.76634 19.0005 9.53991 18.9191 9.35999 18.77C9.15549 18.6005 9.02685 18.3565 9.00246 18.092C8.97807 17.8274 9.05993 17.5641 9.22999 17.36L13.71 12L9.38999 6.63001C9.22222 6.42341 9.14372 6.15846 9.17188 5.89382C9.20003 5.62918 9.33251 5.38668 9.53999 5.22001C9.74916 5.03597 10.0256 4.94753 10.3028 4.976C10.5799 5.00448 10.8326 5.14728 11 5.37001L15.83 11.37C16.1333 11.739 16.1333 12.271 15.83 12.64L10.83 18.64C10.6265 18.8855 10.3182 19.0192 9.99999 19Z" fill="#212B36"/>
</svg>
