<svg width="24" height="24" viewBox="0 0 24 24" fill="none" xmlns="http://www.w3.org/2000/svg">
<path fill-rule="evenodd" clip-rule="evenodd" d="M16.6603 4.60001L19.4003 7.34001C20.1663 8.06978 20.1976 9.28167 19.4703 10.05L10.4703 19.05C10.1443 19.3732 9.7171 19.5745 9.2603 19.62L5.0903 20H5.0003C4.7345 20.0015 4.47902 19.8972 4.2903 19.71C4.07934 19.4998 3.97303 19.2066 4.0003 18.91L4.4303 14.74C4.47581 14.2832 4.67707 13.856 5.0003 13.53L14.0003 4.53001C14.7761 3.87456 15.92 3.90467 16.6603 4.60001ZM13.3203 8.00001L16.0003 10.68L18.0003 8.73001L15.2703 6.00001L13.3203 8.00001Z" fill="#212B36"/>
</svg>
