<svg width="40" height="40" viewBox="0 0 40 40" fill="none" xmlns="http://www.w3.org/2000/svg">
<path d="M10.8333 3H29.1667C29.4254 3 29.6806 3.06145 29.912 3.17947C30.1434 3.2975 30.3448 3.46887 30.5 3.68L35 9.8V35.3C35 35.7509 34.8244 36.1833 34.5118 36.5021C34.1993 36.8209 33.7754 37 33.3333 37H6.66667C6.22464 37 5.80072 36.8209 5.48816 36.5021C5.17559 36.1833 5 35.7509 5 35.3V9.8L9.5 3.68C9.65524 3.46887 9.85655 3.2975 10.088 3.17947C10.3194 3.06145 10.5746 3 10.8333 3ZM30.8333 9.8L28.3333 6.4H11.6667L9.16667 9.8H30.8333ZM15 16.6H11.6667V20C11.6667 22.2543 12.5446 24.4163 14.1074 26.0104C15.6702 27.6045 17.7899 28.5 20 28.5C22.2101 28.5 24.3298 27.6045 25.8926 26.0104C27.4554 24.4163 28.3333 22.2543 28.3333 20V16.6H25V20C25 21.3526 24.4732 22.6498 23.5355 23.6062C22.5979 24.5627 21.3261 25.1 20 25.1C18.6739 25.1 17.4021 24.5627 16.4645 23.6062C15.5268 22.6498 15 21.3526 15 20V16.6Z" fill="#00AB55"/>
</svg>
