<svg width="140" height="40" viewBox="0 0 140 40" fill="none" xmlns="http://www.w3.org/2000/svg">
<path d="M9.84849 4.54546H26.5152C26.7504 4.54546 26.9824 4.60132 27.1928 4.70861C27.4031 4.81591 27.5861 4.9717 27.7273 5.16364L31.8182 10.7273V33.9091C31.8182 34.319 31.6586 34.7121 31.3744 35.0019C31.0903 35.2917 30.7049 35.4545 30.303 35.4545H6.06061C5.65876 35.4545 5.27338 35.2917 4.98923 35.0019C4.70509 34.7121 4.54546 34.319 4.54546 33.9091V10.7273L8.63636 5.16364C8.7775 4.9717 8.9605 4.81591 9.17089 4.70861C9.38128 4.60132 9.61327 4.54546 9.84849 4.54546ZM28.0303 10.7273L25.7576 7.63637H10.6061L8.33333 10.7273H28.0303ZM13.6364 16.9091H10.6061V20C10.6061 22.0494 11.4042 24.0149 12.8249 25.464C14.2457 26.9132 16.1726 27.7273 18.1818 27.7273C20.191 27.7273 22.118 26.9132 23.5387 25.464C24.9594 24.0149 25.7576 22.0494 25.7576 20V16.9091H22.7273V20C22.7273 21.2296 22.2484 22.4089 21.3959 23.2784C20.5435 24.1479 19.3873 24.6364 18.1818 24.6364C16.9763 24.6364 15.8201 24.1479 14.9677 23.2784C14.1153 22.4089 13.6364 21.2296 13.6364 20V16.9091Z" fill="#00AB55"/>
<path d="M42.3244 30.9091V9.75207H50.0723C51.5737 9.75207 52.8168 10 53.8017 10.4959C54.7865 10.9848 55.5234 11.6495 56.0124 12.4897C56.5014 13.323 56.7459 14.2631 56.7459 15.3099C56.7459 16.1915 56.584 16.9353 56.2603 17.5413C55.9366 18.1405 55.5028 18.6226 54.9587 18.9876C54.4215 19.3457 53.8292 19.6074 53.1818 19.7727V19.9793C53.8843 20.0138 54.5696 20.241 55.2376 20.6612C55.9125 21.0744 56.4704 21.6632 56.9112 22.4277C57.3519 23.1922 57.5723 24.1219 57.5723 25.2169C57.5723 26.2982 57.3175 27.2693 56.8079 28.1302C56.3051 28.9842 55.5269 29.6625 54.4731 30.1653C53.4194 30.6612 52.073 30.9091 50.4339 30.9091H42.3244ZM45.5165 28.1715H50.124C51.6529 28.1715 52.7479 27.8753 53.4091 27.2831C54.0703 26.6908 54.4008 25.9504 54.4008 25.062C54.4008 24.3939 54.2321 23.781 53.8946 23.2231C53.5572 22.6653 53.0751 22.2211 52.4484 21.8905C51.8285 21.5599 51.0916 21.3946 50.2376 21.3946H45.5165V28.1715ZM45.5165 18.905H49.7934C50.5096 18.905 51.1536 18.7672 51.7252 18.4917C52.3037 18.2163 52.7617 17.8306 53.0992 17.3347C53.4435 16.832 53.6157 16.2397 53.6157 15.5579C53.6157 14.6832 53.3092 13.9497 52.6963 13.3574C52.0833 12.7652 51.1433 12.469 49.876 12.469H45.5165V18.905Z" fill="#00AB55"/>
<path d="M65.5829 31.2603C64.5773 31.2603 63.6683 31.0744 62.8556 30.7025C62.0429 30.3237 61.399 29.7762 60.9238 29.0599C60.4554 28.3437 60.2213 27.4656 60.2213 26.4256C60.2213 25.5303 60.3935 24.7934 60.7378 24.2149C61.0822 23.6364 61.547 23.1784 62.1324 22.8409C62.7178 22.5034 63.3721 22.2486 64.0953 22.0764C64.8184 21.9043 65.5553 21.7734 66.306 21.6839C67.2564 21.5737 68.0278 21.4842 68.62 21.4153C69.2123 21.3395 69.6428 21.219 69.9114 21.0537C70.18 20.8884 70.3143 20.6198 70.3143 20.2479V20.1756C70.3143 19.2734 70.0594 18.5744 69.5498 18.0785C69.047 17.5826 68.2963 17.3347 67.2977 17.3347C66.2578 17.3347 65.4382 17.5654 64.8391 18.0269C64.2468 18.4814 63.837 18.9876 63.6097 19.5455L60.7068 18.8843C61.0512 17.9201 61.5539 17.1419 62.2151 16.5496C62.8831 15.9504 63.651 15.5165 64.5188 15.2479C65.3866 14.9725 66.2991 14.8347 67.2564 14.8347C67.89 14.8347 68.5615 14.9105 69.2709 15.062C69.9871 15.2066 70.6552 15.4752 71.275 15.8678C71.9017 16.2603 72.4148 16.8216 72.8143 17.5517C73.2137 18.2748 73.4134 19.2149 73.4134 20.3719V30.9091H70.3969V28.7397H70.2729C70.0732 29.1391 69.7736 29.5317 69.3742 29.9174C68.9747 30.303 68.4616 30.6233 67.8349 30.8781C67.2082 31.1329 66.4575 31.2603 65.5829 31.2603ZM66.2543 28.781C67.1083 28.781 67.8384 28.6123 68.4444 28.2748C69.0574 27.9373 69.5222 27.4966 69.8391 26.9525C70.1627 26.4015 70.3246 25.8127 70.3246 25.186V23.1405C70.2144 23.2507 70.0009 23.354 69.6841 23.4504C69.3742 23.5399 69.0195 23.6191 68.62 23.688C68.2206 23.75 67.8315 23.8085 67.4527 23.8636C67.0739 23.9118 66.7571 23.9532 66.5023 23.9876C65.9031 24.0634 65.3556 24.1908 64.8597 24.3698C64.3707 24.5489 63.9782 24.8072 63.682 25.1446C63.3928 25.4752 63.2481 25.916 63.2481 26.4669C63.2481 27.2314 63.5305 27.8099 64.0953 28.2025C64.66 28.5882 65.3797 28.781 66.2543 28.781Z" fill="#00AB55"/>
<path d="M84.035 37.1901C82.7747 37.1901 81.69 37.0248 80.7809 36.6942C79.8787 36.3636 79.1418 35.9263 78.5702 35.3822C77.9985 34.8382 77.5715 34.2424 77.2892 33.595L79.9441 32.5C80.1301 32.803 80.378 33.1233 80.6879 33.4607C81.0047 33.8051 81.4317 34.0978 81.9689 34.3388C82.513 34.5799 83.212 34.7004 84.066 34.7004C85.2368 34.7004 86.2044 34.4146 86.9689 33.843C87.7334 33.2782 88.1156 32.376 88.1156 31.1364V28.0165H87.9193C87.7334 28.354 87.4648 28.7293 87.1135 29.1426C86.7692 29.5558 86.294 29.9139 85.6879 30.2169C85.0819 30.52 84.2933 30.6715 83.3222 30.6715C82.0688 30.6715 80.9393 30.3788 79.9338 29.7934C78.9352 29.2011 78.1432 28.3299 77.5578 27.1798C76.9792 26.0227 76.69 24.6006 76.69 22.9132C76.69 21.2259 76.9758 19.7796 77.5474 18.5744C78.1259 17.3691 78.9179 16.4463 79.9235 15.8058C80.929 15.1584 82.0688 14.8347 83.3429 14.8347C84.3277 14.8347 85.1232 15 85.7292 15.3306C86.3353 15.6543 86.8071 16.0331 87.1445 16.4669C87.4889 16.9008 87.754 17.2831 87.94 17.6136H88.1673V15.0413H91.1941V31.2603C91.1941 32.624 90.8773 33.7431 90.2437 34.6178C89.6101 35.4924 88.7527 36.1398 87.6714 36.5599C86.597 36.98 85.3849 37.1901 84.035 37.1901ZM84.004 28.1095C84.8925 28.1095 85.6432 27.9029 86.2561 27.4897C86.8759 27.0696 87.3443 26.4704 87.6611 25.6922C87.9847 24.907 88.1466 23.9669 88.1466 22.8719C88.1466 21.8044 87.9882 20.8643 87.6714 20.0517C87.3546 19.239 86.8897 18.6054 86.2768 18.1508C85.6638 17.6894 84.9062 17.4587 84.004 17.4587C83.0743 17.4587 82.2995 17.6997 81.6796 18.1818C81.0598 18.657 80.5915 19.3044 80.2747 20.124C79.9648 20.9435 79.8098 21.8595 79.8098 22.8719C79.8098 23.9118 79.9682 24.8244 80.285 25.6095C80.6018 26.3946 81.0702 27.0076 81.69 27.4483C82.3167 27.8891 83.0881 28.1095 84.004 28.1095Z" fill="#00AB55"/>
<path d="M107.082 18.9153L104.282 19.4112C104.165 19.053 103.979 18.7121 103.724 18.3884C103.476 18.0647 103.139 17.7996 102.712 17.593C102.285 17.3864 101.751 17.2831 101.111 17.2831C100.236 17.2831 99.506 17.4793 98.9206 17.8719C98.3352 18.2576 98.0425 18.7569 98.0425 19.3698C98.0425 19.9001 98.2387 20.3271 98.6313 20.6508C99.0239 20.9745 99.6575 21.2397 100.532 21.4463L103.053 22.0248C104.513 22.3623 105.601 22.8822 106.317 23.5847C107.034 24.2872 107.392 25.1997 107.392 26.3223C107.392 27.2727 107.116 28.1198 106.565 28.8636C106.021 29.6006 105.26 30.1791 104.282 30.5992C103.311 31.0193 102.185 31.2293 100.904 31.2293C99.1272 31.2293 97.6775 30.8506 96.5549 30.093C95.4323 29.3285 94.7436 28.2438 94.4887 26.8388L97.4743 26.3843C97.6602 27.1625 98.0425 27.7514 98.621 28.1508C99.1995 28.5434 99.9536 28.7397 100.883 28.7397C101.896 28.7397 102.705 28.5296 103.311 28.1095C103.917 27.6825 104.22 27.1625 104.22 26.5496C104.22 26.0537 104.034 25.6371 103.662 25.2996C103.297 24.9621 102.736 24.7073 101.978 24.5351L99.2925 23.9463C97.8117 23.6088 96.7167 23.0716 96.0073 22.3347C95.3049 21.5978 94.9536 20.6646 94.9536 19.5351C94.9536 18.5985 95.2153 17.7789 95.7387 17.0764C96.2622 16.374 96.9853 15.8264 97.9082 15.4339C98.831 15.0344 99.8882 14.8347 101.08 14.8347C102.795 14.8347 104.144 15.2066 105.129 15.9504C106.114 16.6873 106.765 17.6756 107.082 18.9153Z" fill="#00AB55"/>
<path d="M118.049 15.0413V17.5207H109.382V15.0413H118.049ZM111.706 11.2397H114.795V26.25C114.795 26.8492 114.885 27.3003 115.064 27.6033C115.243 27.8995 115.474 28.1026 115.756 28.2128C116.045 28.3161 116.359 28.3678 116.696 28.3678C116.944 28.3678 117.161 28.3506 117.347 28.3161C117.533 28.2817 117.677 28.2541 117.781 28.2335L118.339 30.7851C118.16 30.854 117.905 30.9229 117.574 30.9917C117.244 31.0675 116.83 31.1088 116.335 31.1157C115.522 31.1295 114.764 30.9848 114.062 30.6818C113.359 30.3788 112.791 29.9105 112.357 29.2769C111.923 28.6433 111.706 27.8478 111.706 26.8905V11.2397Z" fill="#00AB55"/>
<path d="M127.834 31.2293C126.347 31.2293 125.048 30.8884 123.94 30.2066C122.831 29.5248 121.97 28.5709 121.357 27.345C120.744 26.1191 120.438 24.6866 120.438 23.0475C120.438 21.4015 120.744 19.9621 121.357 18.7293C121.97 17.4966 122.831 16.5393 123.94 15.8574C125.048 15.1756 126.347 14.8347 127.834 14.8347C129.322 14.8347 130.62 15.1756 131.729 15.8574C132.838 16.5393 133.699 17.4966 134.311 18.7293C134.924 19.9621 135.231 21.4015 135.231 23.0475C135.231 24.6866 134.924 26.1191 134.311 27.345C133.699 28.5709 132.838 29.5248 131.729 30.2066C130.62 30.8884 129.322 31.2293 127.834 31.2293ZM127.845 28.6364C128.809 28.6364 129.608 28.3815 130.241 27.8719C130.875 27.3623 131.343 26.6839 131.646 25.8368C131.956 24.9897 132.111 24.0565 132.111 23.0372C132.111 22.0248 131.956 21.095 131.646 20.2479C131.343 19.3939 130.875 18.7087 130.241 18.1922C129.608 17.6756 128.809 17.4174 127.845 17.4174C126.873 17.4174 126.068 17.6756 125.427 18.1922C124.794 18.7087 124.322 19.3939 124.012 20.2479C123.709 21.095 123.557 22.0248 123.557 23.0372C123.557 24.0565 123.709 24.9897 124.012 25.8368C124.322 26.6839 124.794 27.3623 125.427 27.8719C126.068 28.3815 126.873 28.6364 127.845 28.6364Z" fill="#00AB55"/>
</svg>
